<svg xmlns="http://www.w3.org/2000/svg" viewBox="0 0 137.6 137.6">
  <defs>
    <style>
      .cls-1 {
        fill: #ff5964;
      }
    </style>
  </defs>
  <path id="Subtraction_4" data-name="Subtraction 4" class="cls-1" d="M-92.2,198.6a69.309,69.309,0,0,1-13.866-1.4,68.455,68.455,0,0,1-12.914-4.009,68.8,68.8,0,0,1-11.687-6.343,69.288,69.288,0,0,1-10.182-8.4,69.294,69.294,0,0,1-8.4-10.182,68.8,68.8,0,0,1-6.343-11.687,68.454,68.454,0,0,1-4.009-12.914A69.308,69.308,0,0,1-161,129.8a69.308,69.308,0,0,1,1.4-13.866,68.454,68.454,0,0,1,4.009-12.914,68.8,68.8,0,0,1,6.343-11.687,69.292,69.292,0,0,1,8.4-10.182,69.29,69.29,0,0,1,10.182-8.4,68.8,68.8,0,0,1,11.687-6.343A68.455,68.455,0,0,1-106.066,62.4,69.309,69.309,0,0,1-92.2,61a69.308,69.308,0,0,1,13.866,1.4A68.454,68.454,0,0,1-65.42,66.407,68.8,68.8,0,0,1-53.733,72.75a69.292,69.292,0,0,1,10.182,8.4,69.291,69.291,0,0,1,8.4,10.182,68.8,68.8,0,0,1,6.343,11.687A68.454,68.454,0,0,1-24.8,115.934,69.309,69.309,0,0,1-23.4,129.8a69.309,69.309,0,0,1-1.4,13.866,68.454,68.454,0,0,1-4.009,12.914,68.8,68.8,0,0,1-6.343,11.687,69.293,69.293,0,0,1-8.4,10.182,69.289,69.289,0,0,1-10.182,8.4,68.8,68.8,0,0,1-11.687,6.343A68.455,68.455,0,0,1-78.335,197.2,69.309,69.309,0,0,1-92.2,198.6Zm.333-113.7a44.218,44.218,0,0,0-17.32,3.5,44.347,44.347,0,0,0-14.143,9.536,44.347,44.347,0,0,0-9.536,14.143,44.217,44.217,0,0,0-3.5,17.32,44.215,44.215,0,0,0,3.5,17.319,44.346,44.346,0,0,0,9.536,14.143,44.347,44.347,0,0,0,14.143,9.536,44.217,44.217,0,0,0,17.32,3.5,44.215,44.215,0,0,0,17.319-3.5A44.347,44.347,0,0,0-60.4,160.863a44.347,44.347,0,0,0,9.536-14.143,44.216,44.216,0,0,0,3.5-17.319,44.218,44.218,0,0,0-3.5-17.32A44.347,44.347,0,0,0-60.4,97.937,44.347,44.347,0,0,0-74.548,88.4,44.216,44.216,0,0,0-91.867,84.9Z" transform="translate(161 -61)"/>
</svg>
