<svg xmlns="http://www.w3.org/2000/svg" viewBox="0 0 129.917 129.917">
  <defs>
    <style>
      .cls-1 {
        fill: #ff5964;
      }
    </style>
  </defs>
  <path id="Subtraction_2" data-name="Subtraction 2" class="cls-1" d="M-96.042,190.917a65.439,65.439,0,0,1-13.091-1.32,64.632,64.632,0,0,1-12.193-3.785,64.96,64.96,0,0,1-11.034-5.989,65.421,65.421,0,0,1-9.614-7.932,65.424,65.424,0,0,1-7.932-9.614,64.961,64.961,0,0,1-5.989-11.034,64.63,64.63,0,0,1-3.785-12.193A65.44,65.44,0,0,1-161,125.959a65.439,65.439,0,0,1,1.32-13.091,64.63,64.63,0,0,1,3.785-12.193,64.961,64.961,0,0,1,5.989-11.034,65.422,65.422,0,0,1,7.932-9.614,65.422,65.422,0,0,1,9.614-7.932A64.962,64.962,0,0,1-121.326,66.1a64.632,64.632,0,0,1,12.193-3.785A65.439,65.439,0,0,1-96.042,61,65.439,65.439,0,0,1-82.95,62.32,64.632,64.632,0,0,1-70.757,66.1a64.961,64.961,0,0,1,11.034,5.989,65.423,65.423,0,0,1,9.614,7.932,65.422,65.422,0,0,1,7.932,9.614,64.962,64.962,0,0,1,5.989,11.034A64.632,64.632,0,0,1-32.4,112.867a65.439,65.439,0,0,1,1.32,13.091A65.439,65.439,0,0,1-32.4,139.05a64.632,64.632,0,0,1-3.785,12.193,64.962,64.962,0,0,1-5.989,11.034,65.424,65.424,0,0,1-7.932,9.614,65.422,65.422,0,0,1-9.614,7.932,64.96,64.96,0,0,1-11.034,5.989A64.632,64.632,0,0,1-82.95,189.6,65.439,65.439,0,0,1-96.042,190.917Zm.314-107.347a41.749,41.749,0,0,0-16.353,3.3,41.871,41.871,0,0,0-13.354,9,41.871,41.871,0,0,0-9,13.354,41.749,41.749,0,0,0-3.3,16.353,41.747,41.747,0,0,0,3.3,16.352,41.871,41.871,0,0,0,9,13.353,41.871,41.871,0,0,0,13.354,9,41.748,41.748,0,0,0,16.353,3.3,41.747,41.747,0,0,0,16.352-3.3,41.871,41.871,0,0,0,13.353-9,41.871,41.871,0,0,0,9-13.353,41.747,41.747,0,0,0,3.3-16.352,41.749,41.749,0,0,0-3.3-16.353,41.871,41.871,0,0,0-9-13.354,41.871,41.871,0,0,0-13.353-9A41.747,41.747,0,0,0-95.727,83.57Z" transform="translate(161 -61)"/>
</svg>
